<?xml version="1.0" encoding="UTF-8" standalone="no"?>
<!-- Generator: Adobe Illustrator 16.0.0, SVG Export Plug-In . SVG Version: 6.00 Build 0)  -->

<svg
   xmlns:dc="http://purl.org/dc/elements/1.1/"
   xmlns:cc="http://creativecommons.org/ns#"
   xmlns:rdf="http://www.w3.org/1999/02/22-rdf-syntax-ns#"
   xmlns:svg="http://www.w3.org/2000/svg"
   xmlns="http://www.w3.org/2000/svg"
   xmlns:sodipodi="http://sodipodi.sourceforge.net/DTD/sodipodi-0.dtd"
   xmlns:inkscape="http://www.inkscape.org/namespaces/inkscape"
   version="1.1"
   id="Layer_1"
   x="0px"
   y="0px"
   width="48"
   height="52"
   viewBox="0 0 48 52"
   enable-background="new 0 0 24 24"
   xml:space="preserve"
   inkscape:version="0.91 r13725"
   sodipodi:docname="backspace.svg"><metadata
     id="metadata9"><rdf:RDF><cc:Work
         rdf:about=""><dc:format>image/svg+xml</dc:format><dc:type
           rdf:resource="http://purl.org/dc/dcmitype/StillImage" /><dc:title></dc:title></cc:Work></rdf:RDF></metadata><defs
     id="defs7" /><sodipodi:namedview
     pagecolor="#ffffff"
     bordercolor="#666666"
     borderopacity="1"
     objecttolerance="10"
     gridtolerance="10"
     guidetolerance="10"
     inkscape:pageopacity="0"
     inkscape:pageshadow="2"
     inkscape:window-width="886"
     inkscape:window-height="480"
     id="namedview5"
     showgrid="false"
     fit-margin-top="0"
     fit-margin-left="0"
     fit-margin-right="0"
     fit-margin-bottom="0"
     inkscape:zoom="4.9166667"
     inkscape:cx="30.381513"
     inkscape:cy="21.827114"
     inkscape:window-x="618"
     inkscape:window-y="144"
     inkscape:window-maximized="0"
     inkscape:current-layer="Layer_1" /><path
     d="m 36.758761,41.260727 -5.873602,-5.873602 5.873602,-5.873602 -3.059793,-3.059793 -5.873602,5.875602 -5.873602,-5.875602 -3.059793,3.059793 5.875602,5.873602 -5.875602,5.873602 3.059793,3.059793 5.873602,-5.875602 5.873602,5.875602 3.059793,-3.059793 z M 1.7371325,39.582841 12.358413,50.204122 C 13.668325,51.512033 14.77425,52 17.148089,52 l 24.918313,0 C 45.34418,52 48,49.34418 48,46.066402 L 48,24.707848 C 48,21.43007 45.34418,18.77425 42.066402,18.77425 l -24.920313,0 c -2.373839,0 -3.477764,0.487967 -4.789676,1.797878 L 1.7351326,31.191409 c -2.31384335,2.317843 -2.31384335,6.073589 0.002,8.391432 z m 15.4089565,8.8554 c -1.18792,0 -1.653888,-0.13799 -2.271846,-0.753949 L 4.2549619,37.063012 c -0.9279372,-0.927938 -0.9279372,-2.427836 0,-3.355773 L 14.874243,23.087958 C 15.492201,22.47 15.958169,22.332009 17.146089,22.332009 l 24.918313,0 c 1.309911,0 2.373839,1.061928 2.373839,2.373839 l 0,21.358554 c 0,1.309911 -1.061928,2.373839 -2.373839,2.373839 l -24.918313,0 z"
     id="path3"
     inkscape:connector-curvature="0"
     style="stroke:none;stroke-opacity:1;fill:#ffffff;fill-opacity:1" /></svg>