<?xml version="1.0" encoding="UTF-8" standalone="no"?>
<svg
   xmlns:dc="http://purl.org/dc/elements/1.1/"
   xmlns:cc="http://creativecommons.org/ns#"
   xmlns:rdf="http://www.w3.org/1999/02/22-rdf-syntax-ns#"
   xmlns:svg="http://www.w3.org/2000/svg"
   xmlns="http://www.w3.org/2000/svg"
   xmlns:sodipodi="http://sodipodi.sourceforge.net/DTD/sodipodi-0.dtd"
   xmlns:inkscape="http://www.inkscape.org/namespaces/inkscape"
   version="1.1"
   x="0px"
   y="0px"
   viewBox="0 0 64 64"
   enable-background="new 0 0 100 100"
   xml:space="preserve"
   id="svg4156"
   inkscape:version="0.91 r13725"
   sodipodi:docname="favicon.svg"
   width="64"
   height="64"><metadata
     id="metadata4178"><rdf:RDF><cc:Work
         rdf:about=""><dc:format>image/svg+xml</dc:format><dc:type
           rdf:resource="http://purl.org/dc/dcmitype/StillImage" /><dc:title></dc:title></cc:Work></rdf:RDF></metadata><defs
     id="defs4176" /><sodipodi:namedview
     pagecolor="#ffffff"
     bordercolor="#666666"
     borderopacity="1"
     objecttolerance="10"
     gridtolerance="10"
     guidetolerance="10"
     inkscape:pageopacity="0"
     inkscape:pageshadow="2"
     inkscape:window-width="1280"
     inkscape:window-height="697"
     id="namedview4174"
     showgrid="false"
     fit-margin-top="0"
     fit-margin-left="0"
     fit-margin-right="0"
     fit-margin-bottom="0"
     inkscape:zoom="5.9962655"
     inkscape:cx="15.406247"
     inkscape:cy="29.570892"
     inkscape:window-x="-8"
     inkscape:window-y="1016"
     inkscape:window-maximized="1"
     inkscape:current-layer="svg4156"
     inkscape:showpageshadow="true"
     showborder="true" /><g
     id="g4720"
     transform="translate(-2.3347864,34)"><rect
       inkscape:export-ydpi="90"
       inkscape:export-xdpi="90"
       y="-34"
       x="2.3347864"
       height="64"
       width="64"
       id="rect4702"
       style="opacity:1;fill:#008060;fill-opacity:1;stroke:none;stroke-width:0.53100002;stroke-linecap:round;stroke-linejoin:round;stroke-miterlimit:4;stroke-dasharray:none;stroke-dashoffset:0;stroke-opacity:1" /><g
       transform="matrix(1.6687176,0,0,1.6796383,8.9043488,-27.014381)"
       id="g4181"><path
         inkscape:connector-curvature="0"
         style="clip-rule:evenodd;fill:#ffffff;fill-opacity:1;fill-rule:evenodd"
         id="path4160"
         d="m 25.566484,15.563735 c -0.03722,-0.08329 -0.07665,-0.117927 -0.174679,-0.117927 -1.513146,0.0041 -3.026291,0.0026 -4.539437,0.0029 -0.03906,0 -0.07813,0.0037 -0.119769,0.0055 l 0,2.389856 0.140407,0 c 0.375522,0 0.750676,0.0033 1.126199,-0.0018 0.09066,-0.0015 0.131561,0.02322 0.158095,0.113872 0.17173,0.590002 0.349726,1.177792 0.52551,1.767057 0.0099,0.03354 0.01585,0.06781 0.02395,0.106133 l -16.7459437,0 c 0.00184,-0.02137 7.371e-4,-0.03354 0.00442,-0.04496 0.1853658,-0.623168 0.3722058,-1.246705 0.5553605,-1.87061 0.020269,-0.06818 0.061911,-0.07002 0.116821,-0.07002 0.3073462,0.0015 0.6146924,7.37e-4 0.9220385,7.37e-4 l 0.3725743,0 0,-2.395384 -0.1400378,0 c -1.5013528,0 -3.0023372,0.0011 -4.5040585,-0.0029 -0.1028173,0 -0.1518305,0.02948 -0.1938418,0.124928 -0.9242434,2.087289 -1.8514411,4.173115 -2.77937592,6.25931 C 0.21226786,22.060753 0.10539689,22.289972 0,22.519192 l 28.654318,0 c -1.02891,-2.318731 -2.059662,-4.636726 -3.087834,-6.955457 z" /><path
         inkscape:connector-curvature="0"
         style="clip-rule:evenodd;fill:#ffffff;fill-opacity:1;fill-rule:evenodd"
         id="path4162"
         d="m 0,23.493192 0,6.308335 c 0.05232993,-0.0015 0.10429133,-0.0037 0.15514717,-0.0037 l 28.58982683,0 c 0.0026,-0.111293 0.0077,-0.165097 0.0077,-0.21927 0,-2.028337 -0.0029,-4.057411 -0.0029,-6.085748 l -28.749764,0 z" /><path
         inkscape:connector-curvature="0"
         style="clip-rule:evenodd;fill:#ffffff;fill-opacity:1;fill-rule:evenodd"
         id="path4164"
         d="m 29.996101,4.8e-6 -7.240324,0 0,6.3083353 c 0.01327,-0.00147 0.02617,-0.00369 0.03906,-0.00369 l 7.199418,0 c 7.38e-4,-0.1112932 0.0022,-0.1650972 0.0022,-0.2192697 C 29.996823,4.0570431 29.996086,2.0283373 29.996086,0 Z" /><path
         inkscape:connector-curvature="0"
         style="clip-rule:evenodd;fill:#ffffff;fill-opacity:1;fill-rule:evenodd"
         id="path4166"
         d="m 19.914115,9.4580855 c -0.07297,0 -0.136721,0.007 -0.19937,-0.00111 -0.18168,-0.024322 -0.324298,0.044591 -0.4706,0.1496194 -1.360578,0.9791601 -2.725579,1.9524231 -4.089842,2.9271601 -0.290762,0.207477 -0.59516,0.386578 -0.943044,0.482393 -0.790108,0.217796 -1.510197,-0.187208 -1.683402,-0.98653 -0.169519,-0.781632 -0.02358,-1.507249 0.511138,-2.1293122 0.121243,-0.1404063 0.244698,-0.2793386 0.381787,-0.4352228 -1.57174,0 -3.117684,0 -4.6680497,0 0,3.1936 0,6.380198 0,9.569743 3.7242687,0 7.4385877,0 11.1613827,0 0,-3.190283 0,-6.3743 0,-9.5767449 z" /><path
         inkscape:connector-curvature="0"
         style="clip-rule:evenodd;fill:#ffffff;fill-opacity:1;fill-rule:evenodd"
         id="path4168"
         d="m 13.699384,8.6624496 c 0.08108,7.37e-4 0.0984,-0.043854 0.118664,-0.1035543 0.151093,-0.4418562 0.313979,-0.8796586 0.451069,-1.3259371 0.08071,-0.2620181 0.248383,-0.4204819 0.484973,-0.5244047 0.368889,-0.1628861 0.758415,-0.2259032 1.157523,-0.1842603 0.175416,0.017689 0.35378,0.068545 0.514086,0.1404063 0.189788,0.08476 0.24175,0.2671774 0.150725,0.4547544 -0.04791,0.098764 -0.11461,0.1927363 -0.187945,0.2752849 -0.939728,1.0447558 -1.881666,2.086932 -2.823236,3.1305822 -0.04754,0.05307 -0.0995,0.108345 -0.127877,0.171731 -0.16694,0.37626 -0.215953,0.768365 -0.112399,1.168947 0.08918,0.34383 0.340513,0.491975 0.675498,0.37626 0.222587,-0.07739 0.442225,-0.189051 0.634224,-0.325404 1.872453,-1.328148 3.738642,-2.6640355 5.60483,-4.0002911 0.04754,-0.033904 0.08955,-0.091393 0.108713,-0.1466712 0.115347,-0.3276148 0.219639,-0.6589148 0.335354,-0.986161 0.02653,-0.075547 0.07334,-0.150725 0.129351,-0.2082142 0.337933,-0.3453037 0.67992,-0.6865538 1.023381,-1.0259613 0.05786,-0.057489 0.08476,-0.1146099 0.08476,-0.198264 -0.0026,-1.1140377 -0.0015,-2.2277069 -0.0018,-3.3417447 0,-0.042748 -0.0041,-0.08476 -0.0066,-0.1326674 -0.0457,-0.00258 -0.08144,-0.00626 -0.116084,-0.00626 -1.257392,-3.685e-4 -2.515153,-0.00111 -3.773282,0.00221 -0.06302,0 -0.133036,0.023217 -0.188314,0.056015 C 16.967132,2.445511 16.100003,2.9636509 15.235454,3.4858446 14.679356,3.8223039 14.12289,4.1595002 13.5749,4.5092262 13.090295,4.8187835 12.731356,5.2462674 12.524616,5.7824648 12.319719,6.3146086 12.143198,6.8574394 11.9582,7.3976905 c -0.140775,0.4109005 -0.275285,0.8240121 -0.417902,1.252233 0.03722,0.00553 0.05565,0.010687 0.07481,0.010687 0.695029,0 1.389691,-0.00147 2.084352,0.00184 z" /></g></g></svg>