<?xml version="1.0" encoding="UTF-8" standalone="no"?>
<svg
   xmlns:dc="http://purl.org/dc/elements/1.1/"
   xmlns:cc="http://creativecommons.org/ns#"
   xmlns:rdf="http://www.w3.org/1999/02/22-rdf-syntax-ns#"
   xmlns:svg="http://www.w3.org/2000/svg"
   xmlns="http://www.w3.org/2000/svg"
   xmlns:sodipodi="http://sodipodi.sourceforge.net/DTD/sodipodi-0.dtd"
   xmlns:inkscape="http://www.inkscape.org/namespaces/inkscape"
   width="30"
   height="30"
   viewBox="0 0 30 30"
   id="svg3336"
   version="1.1"
   inkscape:version="0.91 r13725"
   sodipodi:docname="locate.svg">
  <metadata
     id="metadata3346">
    <rdf:RDF>
      <cc:Work
         rdf:about="">
        <dc:format>image/svg+xml</dc:format>
        <dc:type
           rdf:resource="http://purl.org/dc/dcmitype/StillImage" />
        <dc:title></dc:title>
      </cc:Work>
    </rdf:RDF>
  </metadata>
  <defs
     id="defs3344" />
  <sodipodi:namedview
     pagecolor="#ffffff"
     bordercolor="#666666"
     borderopacity="1"
     objecttolerance="10"
     gridtolerance="10"
     guidetolerance="10"
     inkscape:pageopacity="0"
     inkscape:pageshadow="2"
     inkscape:window-width="1280"
     inkscape:window-height="697"
     id="namedview3342"
     showgrid="false"
     fit-margin-top="0"
     fit-margin-left="0"
     fit-margin-right="0"
     fit-margin-bottom="0"
     inkscape:zoom="5.5208333"
     inkscape:cx="20.737976"
     inkscape:cy="21.91423"
     inkscape:window-x="-8"
     inkscape:window-y="-8"
     inkscape:window-maximized="1"
     inkscape:current-layer="svg3336" />
  <path
     d="m -2,-16 48,0 0,48 -48,0 z"
     id="path3338"
     inkscape:connector-curvature="0"
     style="fill:none" />
  <path
     d="m 15,9.545455 c -3.013636,0 -5.4545455,2.440909 -5.4545455,5.454545 0,3.013636 2.4409095,5.454545 5.4545455,5.454545 3.013636,0 5.454545,-2.440909 5.454545,-5.454545 0,-3.013636 -2.440909,-5.454545 -5.454545,-5.454545 z m 12.190909,4.090909 C 26.563636,7.95 22.05,3.436364 16.363636,2.809091 l 0,-2.809091 -2.727272,0 0,2.809091 C 7.95,3.436364 3.4363636,7.95 2.8090909,13.636364 l -2.8090909,0 0,2.727272 2.8090909,0 C 3.4363636,22.05 7.95,26.563636 13.636364,27.190909 l 0,2.809091 2.727272,0 0,-2.809091 C 22.05,26.563636 26.563636,22.05 27.190909,16.363636 l 2.809091,0 0,-2.727272 -2.809091,0 z M 15,24.545455 c -5.2704545,0 -9.5454545,-4.275 -9.5454545,-9.545455 0,-5.270455 4.275,-9.545455 9.5454545,-9.545455 5.270455,0 9.545455,4.275 9.545455,9.545455 0,5.270455 -4.275,9.545455 -9.545455,9.545455 z"
     id="path3340"
     style="fill:#ffffff;fill-opacity:1;stroke:none"
     inkscape:connector-curvature="0" />
</svg>
