<?xml version="1.0" encoding="UTF-8" standalone="no"?>
<!-- Created with Inkscape (http://www.inkscape.org/) -->

<svg
   xmlns:dc="http://purl.org/dc/elements/1.1/"
   xmlns:cc="http://creativecommons.org/ns#"
   xmlns:rdf="http://www.w3.org/1999/02/22-rdf-syntax-ns#"
   xmlns:svg="http://www.w3.org/2000/svg"
   xmlns="http://www.w3.org/2000/svg"
   xmlns:sodipodi="http://sodipodi.sourceforge.net/DTD/sodipodi-0.dtd"
   xmlns:inkscape="http://www.inkscape.org/namespaces/inkscape"
   width="5.644443mm"
   height="5.644443mm"
   viewBox="0 0 19.999995 19.999995"
   id="svg2"
   version="1.1"
   inkscape:version="0.91 r13725"
   sodipodi:docname="repeat.svg">
  <defs
     id="defs4" />
  <sodipodi:namedview
     id="base"
     pagecolor="#ffffff"
     bordercolor="#666666"
     borderopacity="1.0"
     inkscape:pageopacity="0.0"
     inkscape:pageshadow="2"
     inkscape:zoom="26.500007"
     inkscape:cx="9.9999975"
     inkscape:cy="9.9999975"
     inkscape:document-units="px"
     inkscape:current-layer="layer1"
     showgrid="false"
     fit-margin-top="0"
     fit-margin-left="0"
     fit-margin-right="0"
     fit-margin-bottom="0"
     inkscape:window-width="1280"
     inkscape:window-height="697"
     inkscape:window-x="-8"
     inkscape:window-y="1016"
     inkscape:window-maximized="1" />
  <metadata
     id="metadata7">
    <rdf:RDF>
      <cc:Work
         rdf:about="">
        <dc:format>image/svg+xml</dc:format>
        <dc:type
           rdf:resource="http://purl.org/dc/dcmitype/StillImage" />
        <dc:title></dc:title>
      </cc:Work>
    </rdf:RDF>
  </metadata>
  <g
     inkscape:label="Layer 1"
     inkscape:groupmode="layer"
     id="layer1"
     transform="translate(0,-1032.3622)">
    <g
       id="g3039"
       transform="matrix(0.01302083,0,0,-0.01302083,0,1050.6955)"
       style="fill:#008060;fill-opacity:1;stroke:none;stroke-opacity:1">
      <path
         style="fill:#008060;fill-opacity:1;stroke:none;stroke-opacity:1"
         inkscape:connector-curvature="0"
         id="path3041"
         d="m 1536,1280 0,-448 q 0,-26 -19,-45 -19,-19 -45,-19 l -448,0 q -42,0 -59,40 -17,39 14,69 l 138,138 Q 969,1152 768,1152 664,1152 569.5,1111.5 475,1071 406,1002 337,933 296.5,838.5 256,744 256,640 256,536 296.5,441.5 337,347 406,278 475,209 569.5,168.5 664,128 768,128 q 169,0 304,99.5 135,99.5 185,261.5 7,23 30,23 l 199,0 q 16,0 25,-12 10,-13 7,-27 Q 1479,298 1370.5,161 1262,24 1104.5,-52 947,-128 768,-128 612,-128 470,-67 328,-6 225,97 122,200 61,342 0,484 0,640 q 0,156 61,298 61,142 164,245 103,103 245,164 142,61 298,61 147,0 284.5,-55.5 Q 1190,1297 1297,1196 l 130,129 q 29,31 70,14 39,-17 39,-59 z" />
    </g>
  </g>
</svg>
